<svg xmlns="http://www.w3.org/2000/svg" viewBox="0 0 420.52 137.17"><defs><style>.a{fill:#ef7e3b;}.a,.b{fill-rule:evenodd;}.b,.c{fill:#575656;}</style></defs><path class="a" d="M158.91,79c-16.72,15.87-36.45,31.28-52.11,39.86,3.7-6.38,5-16.41,3.67-23a25.59,25.59,0,0,0-12-16.78l0,0h60.47S158.91,79,158.91,79Z" transform="translate(-45.74 -79.02)"/><path class="b" d="M148.94,215.87a46.8,46.8,0,0,0,12.47-10.6,45.43,45.43,0,0,0,10.69-30.59c-.26-23.1-17.54-44.76-39.51-51.38a65.93,65.93,0,0,0-10.91-2.45c18.88-.12,48.5-17.63,59-41.8l0,0H183v98.1a39.17,39.17,0,0,1-34,38.69Z" transform="translate(-45.74 -79.02)"/><path class="a" d="M45.75,174.05V104.38A25.39,25.39,0,0,1,71,79.08v0C65.1,83.24,61.25,89.37,61.24,97c0,5.47,2.47,12.31,7.35,15.38,11.34,7.14,20-1.93,21.29-5.1-6.27,2-10.15,4.11-15.2-1.81-1.6-1.87-2-5.33-1.69-7.66a11.3,11.3,0,0,1,6.32-8.67l.14-.07c3.32-2,8.17-1.7,11.7-.48a15.18,15.18,0,0,1,9.83,10l.08.24a21.33,21.33,0,0,1-.33,15.92A15,15,0,0,1,94,123c-2.8,1.05-6.07,2-8.93,3.3a69,69,0,0,0-26.59,21.26,66.07,66.07,0,0,0-12.71,26.5Z" transform="translate(-45.74 -79.02)"/><path class="b" d="M108.24,216.19h-53c-.53-4-1.12-10.9-1.11-12.18-.3-5.8-.57-12-.53-14.33.28-17.19,8.91-34.49,22.09-45.46,14.33-12.14,35.91-18.14,54-11.5l.06,0c17.15,5.82,30.89,23.74,30.47,42.07v.08a34,34,0,0,1-8.37,22.21c-4.62,5.39-11.21,9.73-18.33,10.77l-.28.06a23.74,23.74,0,0,1-22.35-5.59c-4.82-4.36-8.75-11.33-8.45-18v-.07A18.41,18.41,0,0,1,109.59,170c3.5-2.73,8.53-4.68,13-3.92h.07a14.06,14.06,0,0,1,9.49,5.8c1.82,2.53,3,6,2.08,9.05-3.47,12-14.29,8.23-16.87,6.7,1.5,2.75,6.09,6.79,13.43,5.32a14.13,14.13,0,0,0,10.72-11,21.15,21.15,0,0,0-2.74-14.42A22.69,22.69,0,0,0,124.46,157c-7.12-1.87-15.18.33-21.15,4.42a29.26,29.26,0,0,0-12.68,22.27c-1.07,10.3,4.36,21,11.73,27.91a38.12,38.12,0,0,0,5.88,4.55Z" transform="translate(-45.74 -79.02)"/><path class="b" d="M243.31,100.22v28.39h22.5c6.3,0,11.1-1.14,14.38-3.39s4.9-6.1,4.9-11.51q0-6.69-4.54-10.09t-14.61-3.4Zm-12.47,81.57V89.55h40.6a30.11,30.11,0,0,1,14.23,3.13,21.49,21.49,0,0,1,8.89,8.39,23.22,23.22,0,0,1,3,11.71q0,13.5-12.34,19.3a36.93,36.93,0,0,1,12,7.55c3.15,3.09,4.73,8.05,4.73,15a26.52,26.52,0,0,1-3.62,13.7,25.53,25.53,0,0,1-10.78,9.85,36.8,36.8,0,0,1-16.94,3.66Zm12.47-43v32.37h26.61q9.56,0,14.55-4.5c3.32-3,5-7.11,5-12.35q0-15.51-21.57-15.52Zm65.57-38.16v-11h74.93v11H352.59v81.19H340.12V100.6Zm98.75-.38v28.39h22.5c6.3,0,11.1-1.14,14.38-3.39s4.91-6.1,4.91-11.51q0-6.69-4.55-10.09t-14.61-3.4Zm-12.47,81.57V89.55h40.61A30.14,30.14,0,0,1,450,92.68a21.49,21.49,0,0,1,8.89,8.39,23.33,23.33,0,0,1,3,11.71q0,13.5-12.34,19.3a36.88,36.88,0,0,1,12,7.55c3.15,3.09,4.74,8.05,4.74,15a26.52,26.52,0,0,1-3.62,13.7,25.53,25.53,0,0,1-10.78,9.85,36.87,36.87,0,0,1-16.95,3.66Zm12.47-43v32.37h26.62q9.54,0,14.55-4.5c3.32-3,5-7.11,5-12.35q0-15.51-21.58-15.52Z" transform="translate(-45.74 -79.02)"/><path class="b" d="M181.8,205.4a5,5,0,0,1,2.43.64,4.54,4.54,0,0,1,1.84,1.82,5,5,0,0,1,.66,2.48,4.91,4.91,0,0,1-.65,2.45,4.64,4.64,0,0,1-1.82,1.83,5.09,5.09,0,0,1-2.46.65,5,5,0,0,1-2.46-.65,4.73,4.73,0,0,1-1.83-1.83,5,5,0,0,1,0-4.93,4.5,4.5,0,0,1,1.85-1.82,5,5,0,0,1,2.43-.64Zm0,.82a4.16,4.16,0,0,0-2,.53,3.76,3.76,0,0,0-1.54,1.52,4.08,4.08,0,0,0,0,4.11,3.79,3.79,0,0,0,1.53,1.52,4.1,4.1,0,0,0,4.1,0,3.83,3.83,0,0,0,1.52-1.52,4.15,4.15,0,0,0,0-4.11,3.76,3.76,0,0,0-1.54-1.52,4.15,4.15,0,0,0-2-.53Zm-2.17,6.84h.86v-2.25h.5a1.13,1.13,0,0,1,.69.18,4.18,4.18,0,0,1,.9,1.23l.47.84h1l-.64-1a7,7,0,0,0-.79-1.05,1.39,1.39,0,0,0-.45-.28,1.64,1.64,0,0,0,1.1-.49,1.38,1.38,0,0,0,.42-1,1.31,1.31,0,0,0-.25-.77,1.28,1.28,0,0,0-.67-.52,4.79,4.79,0,0,0-1.35-.14h-1.83v5.3Zm.86-3h1a1.67,1.67,0,0,0,1-.22.72.72,0,0,0,.27-.58.75.75,0,0,0-.13-.42.77.77,0,0,0-.36-.28,2.83,2.83,0,0,0-.87-.09h-1Z" transform="translate(-45.74 -79.02)"/><path class="c" d="M238.55,210.29h-7.71v-17.7h12.27V196h-8.47v3.16h3.91a6.08,6.08,0,0,1,4.34,1.63,5.33,5.33,0,0,1,0,7.86A6.08,6.08,0,0,1,238.55,210.29Zm-3.91-3.4h3.79a2.39,2.39,0,0,0,1.7-.65,2,2,0,0,0,0-3,2.35,2.35,0,0,0-1.7-.65h-3.79Z" transform="translate(-45.74 -79.02)"/><path class="c" d="M258.39,206.12h-6.82l-1.52,4.17H246l7-17.7h4l7,17.7h-4Zm-1.26-3.28L255,197l-2.16,5.82Z" transform="translate(-45.74 -79.02)"/><path class="c" d="M282.28,210.29h-3.79V199.05l-8.72,11.24h-3.29v-17.7h3.8v11.26L279,192.59h3.28Zm-9-22.55a1.47,1.47,0,0,0,1.09.43,1.45,1.45,0,0,0,1.08-.43,1.48,1.48,0,0,0,.44-1.09h2.53a3.77,3.77,0,0,1-1.13,2.82,4.4,4.4,0,0,1-5.84,0,3.8,3.8,0,0,1-1.12-2.82h2.52A1.47,1.47,0,0,0,273.23,187.74Z" transform="translate(-45.74 -79.02)"/><path class="c" d="M290.23,192.59h13.9V196h-5.05v14.28h-3.79V196h-5.06Z" transform="translate(-45.74 -79.02)"/><path class="c" d="M309.56,192.59l4.18,8.35,3.54-8.35h4.05l-6.2,13.28a9.73,9.73,0,0,1-2.55,3.49,5.63,5.63,0,0,1-3.65,1.18,5,5,0,0,1-1-.1,4.39,4.39,0,0,1-.75-.19l-.26-.08v-3.28a4.25,4.25,0,0,0,1.52.24,3.18,3.18,0,0,0,2.91-1.76l.51-.89-6.32-11.89Z" transform="translate(-45.74 -79.02)"/><path class="c" d="M345.85,192.59v17.7H323.59v-17.7h3.8v14.3h5.43v-14.3h3.79v14.3H342v-14.3Z" transform="translate(-45.74 -79.02)"/><path class="c" d="M352.52,192.59l4.18,8.35,3.54-8.35h4.05l-6.2,13.28a9.61,9.61,0,0,1-2.55,3.49,5.63,5.63,0,0,1-3.65,1.18,5,5,0,0,1-1-.1,4.39,4.39,0,0,1-.75-.19l-.26-.08v-3.28a4.29,4.29,0,0,0,1.52.24,3.17,3.17,0,0,0,2.91-1.76l.51-.89-6.32-11.89Z" transform="translate(-45.74 -79.02)"/><path class="c" d="M376,200.31l6.12-7.72h3.36v17.7h-3.79v-11.8L376,205.74l-5.68-7.2v11.75h-3.8v-17.7H370Z" transform="translate(-45.74 -79.02)"/><path class="c" d="M402.94,210.29h-7.71v-17.7H407.5V196H399v3.16h3.91a6,6,0,0,1,4.33,1.63,5.33,5.33,0,0,1,0,7.86A6,6,0,0,1,402.94,210.29Zm-3.91-3.4h3.79a2.41,2.41,0,0,0,1.7-.65,2,2,0,0,0,0-3,2.36,2.36,0,0,0-1.7-.65H399Z" transform="translate(-45.74 -79.02)"/><path class="c" d="M422.78,206.12H416l-1.52,4.17h-4l7-17.7h4l7,17.7H424.3Zm-1.26-3.28L419.37,197l-2.16,5.82Z" transform="translate(-45.74 -79.02)"/><path class="c" d="M446,192.59v17.7h-3.79v-7.21h-7.58v7.21h-3.8v-17.7h3.8v7.09h7.58v-7.09Z" transform="translate(-45.74 -79.02)"/><path class="c" d="M454.38,192.59v7.72l6.95-7.72h4.42l-6.56,7.33,7.07,10.37h-4.42l-5.19-7.58-2.27,2.52v5.06h-3.8v-17.7Z" transform="translate(-45.74 -79.02)"/></svg>